<svg width="78" height="21" viewBox="0 0 78 21" fill="none" xmlns="http://www.w3.org/2000/svg">
<path d="M9.5 0C9.00539 5.14059e-07 8.5219 0.146716 8.1107 0.421579C7.6995 0.696442 7.37907 1.0871 7.18996 1.54413C7.00084 2.00115 6.95155 2.504 7.0483 2.98906C7.14506 3.47411 7.38352 3.91955 7.73351 4.26904C8.0835 4.61853 8.5293 4.85635 9.01449 4.9524C9.49968 5.04846 10.0025 4.99843 10.4592 4.80866C10.916 4.61889 11.3062 4.2979 11.5804 3.8863C11.8547 3.4747 12.0007 2.991 12 2.4964C11.999 1.83398 11.7352 1.19902 11.2665 0.730957C10.7978 0.262895 10.1624 -6.88466e-07 9.5 0ZM9.5 3.90138C9.22281 3.90138 8.95184 3.81922 8.72133 3.66529C8.49082 3.51135 8.31111 3.29254 8.2049 3.03651C8.09869 2.78047 8.07076 2.4987 8.12463 2.2268C8.17849 1.9549 8.31175 1.70506 8.50755 1.50886C8.70334 1.31266 8.95291 1.17889 9.2247 1.12447C9.49649 1.07004 9.77832 1.0974 10.0346 1.20308C10.2908 1.30876 10.51 1.48802 10.6644 1.71822C10.8188 1.94841 10.9015 2.21921 10.9021 2.4964C10.9025 2.68077 10.8665 2.8634 10.7962 3.03385C10.7259 3.20429 10.6227 3.3592 10.4925 3.4897C10.3622 3.6202 10.2075 3.72374 10.0372 3.79438C9.86693 3.86502 9.68437 3.90138 9.5 3.90138Z" fill="#F9F9F9"/>
<path d="M2.5 7C2.00555 7 1.5222 7.14662 1.11108 7.42132C0.699953 7.69603 0.379522 8.08647 0.190302 8.54329C0.00108344 9.00011 -0.0484252 9.50277 0.0480378 9.98772C0.144501 10.4727 0.382603 10.9181 0.732235 11.2678C1.08187 11.6174 1.52732 11.8555 2.01228 11.952C2.49723 12.0484 2.99989 11.9989 3.45671 11.8097C3.91352 11.6205 4.30397 11.3 4.57867 10.8889C4.85338 10.4778 5 9.99445 5 9.5C5 9.1717 4.93534 8.8466 4.8097 8.54329C4.68406 8.23998 4.49991 7.96438 4.26777 7.73223C4.03562 7.50009 3.76002 7.31594 3.45671 7.1903C3.1534 7.06466 2.82831 7 2.5 7ZM2.5 10.9014C2.22266 10.9014 1.95155 10.8191 1.72096 10.665C1.49037 10.5109 1.31066 10.2919 1.20456 10.0357C1.09846 9.77943 1.07073 9.49748 1.12489 9.22547C1.17905 8.95347 1.31266 8.70364 1.50882 8.50758C1.70498 8.31153 1.95488 8.17804 2.22691 8.12402C2.49894 8.07001 2.78087 8.09787 3.03706 8.20411C3.29325 8.31034 3.51218 8.49016 3.66616 8.72083C3.82014 8.9515 3.90225 9.22266 3.90211 9.5C3.90211 9.68409 3.86583 9.86638 3.79536 10.0365C3.72489 10.2065 3.6216 10.361 3.4914 10.4912C3.36119 10.6213 3.20662 10.7245 3.03651 10.7949C2.8664 10.8653 2.68409 10.9015 2.5 10.9014Z" fill="#F9F9F9"/>
<mask id="path-3-inside-1_561_1855" fill="white">
<path d="M56 17.5027C56.0004 17.603 55.9746 17.7017 55.925 17.7889C55.8755 17.8761 55.804 17.9489 55.7177 18H13.8495C13.5138 17.9828 13.1892 17.874 12.9112 17.6853C12.8853 17.6689 12.8614 17.6519 12.8349 17.633L4 11.4538L4.56715 10.6437L8.93924 13.7009V4H9.92986V14.3952L12.1052 15.9128L13.1216 16.6228C13.1275 16.6292 13.1341 16.6349 13.1412 16.6398L13.2609 16.7235C13.2709 16.728 13.2804 16.7335 13.2893 16.7399C13.5794 16.9156 13.9122 17.0084 14.2515 17.008H55.7271C55.8107 17.0608 55.8795 17.1338 55.9273 17.2203C55.975 17.3068 56 17.404 56 17.5027Z"/>
</mask>
<path d="M56 17.5027L54 17.5029L54 17.5109L56 17.5027ZM55.7177 18V20H56.2653L56.7365 19.7211L55.7177 18ZM13.8495 18L13.7473 19.9974L13.7984 20H13.8495V18ZM12.9112 17.6853L14.0342 16.0304L14.0081 16.0126L13.9814 15.9957L12.9112 17.6853ZM12.8349 17.633L13.9965 16.0049L13.9889 15.9995L13.9812 15.9941L12.8349 17.633ZM4 11.4538L2.36162 10.3068L1.21404 11.9459L2.85373 13.0927L4 11.4538ZM4.56715 10.6437L5.71325 9.0047L4.07515 7.85925L2.92877 9.49669L4.56715 10.6437ZM8.93924 13.7009L7.79314 15.34L10.9392 17.5399V13.7009H8.93924ZM8.93924 4V2H6.93924V4H8.93924ZM9.92986 4H11.9299V2H9.92986V4ZM9.92986 14.3952H7.92986V15.4385L8.78554 16.0355L9.92986 14.3952ZM12.1052 15.9128L13.2505 14.2732L13.2495 14.2725L12.1052 15.9128ZM13.1216 16.6228L14.5922 15.2673L14.445 15.1076L14.2669 14.9832L13.1216 16.6228ZM13.1412 16.6398L14.2872 15.0007L14.2801 14.9958L13.1412 16.6398ZM13.2609 16.7235L12.1149 18.3626L12.2684 18.4699L12.4392 18.5469L13.2609 16.7235ZM13.2893 16.7399L12.1215 18.3636L12.1855 18.4096L12.2529 18.4504L13.2893 16.7399ZM14.2515 17.008V15.008L14.2493 15.008L14.2515 17.008ZM55.7271 17.008L56.7951 15.317L56.3058 15.008H55.7271V17.008ZM54 17.5109C53.999 17.2621 54.0631 17.0176 54.1858 16.8014L57.6643 18.7763C57.886 18.3857 58.0018 17.9439 58 17.4946L54 17.5109ZM54.1858 16.8014C54.3085 16.5853 54.4855 16.4053 54.6989 16.2789L56.7365 19.7211C57.1226 19.4925 57.4426 19.1669 57.6643 18.7763L54.1858 16.8014ZM55.7177 16H13.8495V20H55.7177V16ZM13.9517 16.0026C13.981 16.0041 14.0096 16.0136 14.0342 16.0304L11.7881 19.3402C12.3689 19.7343 13.0465 19.9615 13.7473 19.9974L13.9517 16.0026ZM13.9814 15.9957C13.9969 16.0055 14.0074 16.0127 14.0102 16.0147C14.0115 16.0156 14.0114 16.0155 14.009 16.0138C14.0063 16.012 14.0028 16.0095 13.9965 16.0049L11.6733 19.2611C11.6965 19.2776 11.7624 19.3251 11.841 19.3749L13.9814 15.9957ZM13.9812 15.9941L5.14627 9.81491L2.85373 13.0927L11.6886 19.272L13.9812 15.9941ZM5.63838 12.6009L6.20553 11.7908L2.92877 9.49669L2.36162 10.3068L5.63838 12.6009ZM3.42105 12.2828L7.79314 15.34L10.0853 12.0619L5.71325 9.0047L3.42105 12.2828ZM10.9392 13.7009V4H6.93924V13.7009H10.9392ZM8.93924 6H9.92986V2H8.93924V6ZM7.92986 4V14.3952H11.9299V4H7.92986ZM8.78554 16.0355L10.9609 17.5531L13.2495 14.2725L11.0742 12.7549L8.78554 16.0355ZM10.9599 17.5524L11.9764 18.2624L14.2669 14.9832L13.2505 14.2732L10.9599 17.5524ZM11.651 17.9783C11.7567 18.093 11.8746 18.1954 12.0022 18.2838L14.2801 14.9958C14.3936 15.0743 14.4983 15.1654 14.5922 15.2673L11.651 17.9783ZM11.9951 18.2789L12.1149 18.3626L14.407 15.0844L14.2872 15.0007L11.9951 18.2789ZM12.4392 18.5469C12.3274 18.4965 12.221 18.4351 12.1215 18.3636L14.457 15.1162C14.3398 15.0319 14.2144 14.9595 14.0826 14.9001L12.4392 18.5469ZM12.2529 18.4504C12.8563 18.816 13.5484 19.0088 14.2538 19.008L14.2493 15.008C14.2761 15.008 14.3025 15.0153 14.3256 15.0293L12.2529 18.4504ZM14.2515 19.008H55.7271V15.008H14.2515V19.008ZM54.6592 18.699C54.4576 18.5717 54.2913 18.3953 54.176 18.1862L57.6786 16.2544C57.4678 15.8723 57.1638 15.5499 56.7951 15.317L54.6592 18.699ZM54.176 18.1862C54.0606 17.9771 54 17.742 54 17.5029L58 17.5026C58 17.066 57.8893 16.6366 57.6786 16.2544L54.176 18.1862Z" fill="#F9F9F9" mask="url(#path-3-inside-1_561_1855)"/>
<path d="M78 20.4984C78.0005 20.5994 77.9741 20.6988 77.9235 20.7867C77.8728 20.8747 77.7997 20.9482 77.7113 21H43.2887C43.2003 20.9482 43.1272 20.8747 43.0765 20.7867C43.0259 20.6988 42.9995 20.5994 43 20.4984C43.0004 20.3989 43.0263 20.3011 43.0754 20.214C43.1245 20.1269 43.1952 20.0533 43.2809 20C43.2809 20 43.2809 20 43.2861 20H77.7139C77.7139 20 77.7139 20 77.7184 20C77.8043 20.0532 77.8752 20.1267 77.9244 20.2138C77.9736 20.3009 77.9996 20.3988 78 20.4984Z" fill="#B6FF00"/>
<path d="M12.8152 17.9521L12.8124 17.9549L12.8096 17.9521H12.8152Z" fill="#F9F9F9"/>
<path d="M14 12.6191C14 13.3532 14.2372 13.9106 14.7535 14.264C15.2418 14.6039 15.7581 14.8078 16.2465 14.8078H19.2883C19.7767 14.8078 20.3069 14.6175 20.7813 14.264C21.2837 13.897 21.5348 13.3532 21.5348 12.6191V10.7566C21.5348 10.0361 21.2697 9.4515 20.7813 9.12522H20.7953C20.3069 8.79895 19.7767 8.58143 19.2883 8.58143H16.5953C15.9116 8.58143 15.6605 8.1464 15.6605 7.67058V6.28392C15.6605 5.83529 15.9116 5.37307 16.5953 5.37307H18.9395C19.6232 5.37307 19.8744 5.83529 19.8744 6.28392V6.96366C19.8744 7.38509 20.1534 7.60261 20.6976 7.60261C21.2558 7.60261 21.5348 7.38509 21.5348 6.96366V6.16157C21.5348 5.44104 21.2697 4.87006 20.7813 4.5302H20.7953C20.3069 4.21752 19.7767 4 19.2883 4H16.2465C15.7581 4 15.2279 4.21752 14.7395 4.5302H14.7535C14.2651 4.87006 14 5.44104 14 6.16157V7.77934C14 8.49986 14.2512 9.04365 14.7535 9.42431C15.2698 9.76418 15.7581 9.94091 16.2465 9.94091H18.9395C19.6232 9.94091 19.8744 10.4167 19.8744 10.8654V12.5103C19.8744 12.9861 19.6232 13.4348 18.9395 13.4348H16.5953C15.9116 13.4348 15.6605 12.9861 15.6605 12.5103V11.7218C15.6605 11.3004 15.3814 11.0829 14.8232 11.0829C14.2791 11.0829 14 11.3004 14 11.7218V12.6191Z" fill="#F9F9F9"/>
<path d="M24.385 14.903C24.9013 14.903 25.1524 14.6855 25.1524 14.264V8.88052C25.1524 8.25516 25.4176 7.8881 26.0873 7.8881H26.9803C27.3571 7.8881 27.6082 7.99686 27.7338 8.21437C27.8454 8.4183 27.9292 8.64941 27.9292 8.88052V14.264C27.9292 14.6855 28.1943 14.903 28.7106 14.903C29.2268 14.903 29.478 14.6855 29.478 14.264V8.88052C29.478 8.26875 29.771 7.8881 30.4268 7.8881H31.3059C31.7384 7.8881 31.9198 7.98326 32.0733 8.21437L32.0594 8.20078C32.2129 8.4047 32.2547 8.64941 32.2547 8.88052V14.264C32.2547 14.6855 32.5198 14.903 33.0361 14.903C33.5524 14.903 33.8175 14.6855 33.8175 14.264V8.75816C33.8175 8.01045 33.5524 7.48026 33.0501 7.12679C32.5617 6.78692 32.0594 6.61019 31.571 6.61019H30.1757C29.7152 6.61019 29.171 6.77333 28.7106 7.1132C28.2222 6.77333 27.678 6.61019 27.2455 6.61019H25.8362C25.3478 6.61019 24.8594 6.78692 24.3432 7.12679C23.8408 7.46666 23.5897 8.01045 23.5897 8.75816V14.264C23.5897 14.6855 23.8548 14.903 24.385 14.903Z" fill="#F9F9F9"/>
<path d="M35.3596 12.7142C35.3596 14.0601 36.2526 14.7942 37.5921 14.7942H39.42C39.7549 14.7942 39.9363 14.5767 39.9502 14.1553C39.9502 13.7338 39.7688 13.5163 39.42 13.5163H37.8433C37.2991 13.5163 36.9363 13.2444 36.8944 12.7006V12.2248C36.8944 11.9937 36.9502 11.7762 37.1037 11.5859C37.2572 11.3955 37.5084 11.314 37.8572 11.3276H40.6897L40.7037 14.3048C40.7037 14.7806 41.0107 14.8758 41.4572 14.8758C41.9735 14.8758 42.2246 14.6583 42.2246 14.2233V12.0889H42.2386V10.8518L42.2246 10.6886V8.77176C42.2246 8.13281 42.0014 7.53464 41.4711 7.14039H41.4851C41.0386 6.8549 40.5363 6.61019 39.9921 6.61019H37.8712C37.3549 6.61019 36.7828 6.86849 36.3502 7.14039H36.3642C35.8479 7.53464 35.6107 8.09202 35.6107 8.71738V8.83973C35.6107 9.31555 35.8758 9.54666 36.3921 9.54666C36.9084 9.54666 37.1735 9.31555 37.1735 8.83973V8.73098C37.1735 8.1464 37.5363 7.8881 38.1084 7.8881H39.7409C40.327 7.8881 40.6897 8.21437 40.6897 8.78535V10.0497H37.5921C36.2526 10.0497 35.3596 10.7974 35.3596 12.1297V12.7142Z" fill="#F9F9F9"/>
<path d="M43.9873 14.2233C43.9873 14.6583 44.2524 14.8758 44.7827 14.8758C45.2989 14.8758 45.5501 14.6583 45.5501 14.2233V8.60862C45.5501 8.15999 45.6896 7.8881 46.3594 7.8881H47.8384C48.2012 7.8881 48.3687 7.67058 48.3547 7.24915C48.3547 6.82771 48.1873 6.61019 47.8384 6.61019H46.2478C45.6478 6.61019 45.1315 6.75974 44.671 7.04522C44.2106 7.33071 43.9873 7.84732 43.9873 8.59503V14.2233Z" fill="#F9F9F9"/>
<path d="M48.7252 7.24915C48.7392 7.67058 48.9206 7.8881 49.2555 7.8881H49.7997V12.8502C49.7997 13.5979 50.0229 14.1145 50.4834 14.4V14.3864C50.9717 14.6719 51.4741 14.835 52.0741 14.835H52.5345C52.8834 14.835 53.0508 14.6175 53.0508 14.1961C53.0647 13.7746 52.8973 13.5707 52.5345 13.5707H52.1717C51.502 13.5707 51.3624 13.3124 51.3624 12.8366V7.8881H52.5206C52.8694 7.8881 53.0368 7.67058 53.0368 7.24915C53.0508 6.82771 52.8834 6.61019 52.5206 6.61019H51.3624V5.15555C51.3624 4.72052 51.1113 4.50301 50.595 4.50301C50.0648 4.50301 49.7997 4.72052 49.7997 5.15555V6.61019H49.2555C48.9066 6.61019 48.7252 6.82771 48.7252 7.24915Z" fill="#F9F9F9"/>
<path d="M55.4533 15C56.0115 15 56.2905 14.7825 56.2905 14.3475V5.47009H59.2207C59.9045 5.47009 60.1696 5.93231 60.1696 6.38093V8.61047C60.1696 9.0591 59.9045 9.52132 59.2207 9.52132H57.7417C57.351 9.52132 57.1556 9.75243 57.1556 10.2147C57.1556 10.6361 57.337 10.8944 57.658 10.8944H59.5835C60.0719 10.8944 60.5882 10.7177 61.0626 10.3642C61.5649 9.99714 61.8161 9.45335 61.8161 8.71923V6.25858C61.8161 5.53806 61.551 4.96708 61.0626 4.62721H61.0765C60.5882 4.31453 60.044 4.09702 59.5835 4.09702H55.5092C55.0208 4.09702 54.644 4.26015 54.644 4.9127V14.3475C54.644 14.7825 54.9092 15 55.4533 15Z" fill="#B6FF00"/>
<path d="M63.7555 14.3203C63.7555 14.7553 64.0206 14.9728 64.5508 14.9728C65.0671 14.9728 65.3183 14.7553 65.3183 14.3203V8.70564C65.3183 8.25701 65.4578 7.98512 66.1276 7.98512H67.6066C67.9694 7.98512 68.1368 7.7676 68.1229 7.34616C68.1229 6.92472 67.9554 6.70721 67.6066 6.70721H66.0159C65.4159 6.70721 64.8997 6.85675 64.4392 7.14224C63.9787 7.42773 63.7555 7.94433 63.7555 8.69204V14.3203Z" fill="#B6FF00"/>
<path d="M69.3027 8.86877V12.7297C69.3027 13.994 70.2655 14.8913 71.5352 14.8913H73.7678C73.9492 14.8913 74.1585 14.8641 74.3678 14.8097C75.4143 14.5378 76.0003 13.8309 76.0003 12.7297V8.86877C76.0003 7.60446 75.0375 6.70721 73.7678 6.70721H71.5352C71.3539 6.70721 71.1446 6.7344 70.9353 6.78878C69.8888 7.06067 69.3027 7.7676 69.3027 8.86877ZM70.8376 8.8008C70.8794 8.2842 71.2701 7.98512 71.7864 7.98512H73.5166C74.0329 7.98512 74.4236 8.2842 74.4655 8.8008V12.7977C74.4236 13.3143 74.0329 13.6133 73.5166 13.6133H71.7864C71.2701 13.6133 70.8794 13.3143 70.8376 12.7977V8.8008Z" fill="#B6FF00"/>
</svg>
